STARTFONT 2.1
FONT -Linotype-Times-Medium-R-Normal--14-140-72-72-P-73-ISO8859-1
SIZE 14 72 72
FONTBOUNDINGBOX 19 18 -4 -4

STARTPROPERTIES 22
FONTNAME_REGISTRY "-"
FOUNDRY "Linotype"
FAMILY_NAME "Times"
WEIGHT_NAME "Medium"
SLANT "R"
SETWIDTH_NAME "Normal"
ADD_STYLE_NAME ""
PIXEL_SIZE 14
POINT_SIZE 140
RESOLUTION_X 72
RESOLUTION_Y 72
SPACING "P"
CHARSET_REGISTRY "ISO8859"
CHARSET_ENCODING "1"
FULL_NAME "Times-Roman"
AVERAGE_WIDTH 73
WEIGHT 10
X_HEIGHT 7
QUAD_WIDTH 8
DEFAULT_CHAR 32
FONT_DESCENT 3
FONT_ASCENT 12
ENDPROPERTIES

CHARS 190

STARTCHAR space
ENCODING 32
SWIDTH 250 0
DWIDTH 4 0
BBX 1 1 0 0
BITMAP
00
ENDCHAR

STARTCHAR exclam
ENCODING 33
SWIDTH 333 0
DWIDTH 5 0
BBX 1 10 2 0
BITMAP
80
80
80
80
80
80
80
00
00
80
ENDCHAR

STARTCHAR quotedbl
ENCODING 34
SWIDTH 408 0
DWIDTH 6 0
BBX 4 3 1 7
BITMAP
90
90
90
ENDCHAR

STARTCHAR numbersign
ENCODING 35
SWIDTH 500 0
DWIDTH 7 0
BBX 7 10 0 0
BITMAP
28
28
28
FE
28
28
FE
28
28
28
ENDCHAR

STARTCHAR dollar
ENCODING 36
SWIDTH 500 0
DWIDTH 7 0
BBX 6 12 1 -1
BITMAP
20
78
A4
A4
60
30
28
24
A4
A4
78
20
ENDCHAR

STARTCHAR percent
ENCODING 37
SWIDTH 833 0
DWIDTH 12 0
BBX 11 10 0 0
BITMAP
3080
4F00
8900
8A00
94C0
6520
0A20
1220
1240
2180
ENDCHAR

STARTCHAR ampersand
ENCODING 38
SWIDTH 778 0
DWIDTH 11 0
BBX 10 10 1 0
BITMAP
1C00
2400
2400
2B80
3100
5100
9200
8A00
8440
7B80
ENDCHAR

STARTCHAR quoteright
ENCODING 39
SWIDTH 333 0
DWIDTH 5 0
BBX 2 3 2 7
BITMAP
C0
40
80
ENDCHAR

STARTCHAR parenleft
ENCODING 40
SWIDTH 333 0
DWIDTH 5 0
BBX 3 12 1 -2
BITMAP
20
40
40
80
80
80
80
80
80
40
40
20
ENDCHAR

STARTCHAR parenright
ENCODING 41
SWIDTH 333 0
DWIDTH 5 0
BBX 3 12 1 -2
BITMAP
80
40
40
20
20
20
20
20
20
40
40
80
ENDCHAR

STARTCHAR asterisk
ENCODING 42
SWIDTH 500 0
DWIDTH 7 0
BBX 5 5 1 4
BITMAP
20
A8
70
A8
20
ENDCHAR

STARTCHAR plus
ENCODING 43
SWIDTH 564 0
DWIDTH 8 0
BBX 7 7 0 0
BITMAP
10
10
10
FE
10
10
10
ENDCHAR

STARTCHAR comma
ENCODING 44
SWIDTH 250 0
DWIDTH 4 0
BBX 2 3 1 -2
BITMAP
C0
40
80
ENDCHAR

STARTCHAR minus
ENCODING 45
SWIDTH 564 0
DWIDTH 8 0
BBX 7 1 0 3
BITMAP
FE
ENDCHAR

STARTCHAR period
ENCODING 46
SWIDTH 250 0
DWIDTH 4 0
BBX 1 1 1 0
BITMAP
80
ENDCHAR

STARTCHAR slash
ENCODING 47
SWIDTH 278 0
DWIDTH 4 0
BBX 4 12 0 -2
BITMAP
10
10
10
20
20
20
40
40
40
80
80
80
ENDCHAR

STARTCHAR zero
ENCODING 48
SWIDTH 500 0
DWIDTH 7 0
BBX 6 10 1 0
BITMAP
30
48
84
84
84
84
84
84
48
30
ENDCHAR

STARTCHAR one
ENCODING 49
SWIDTH 500 0
DWIDTH 7 0
BBX 3 10 2 0
BITMAP
C0
40
40
40
40
40
40
40
40
E0
ENDCHAR

STARTCHAR two
ENCODING 50
SWIDTH 500 0
DWIDTH 7 0
BBX 6 10 1 0
BITMAP
70
88
88
08
08
10
10
20
44
F8
ENDCHAR

STARTCHAR three
ENCODING 51
SWIDTH 500 0
DWIDTH 7 0
BBX 4 10 1 0
BITMAP
60
90
10
10
60
10
10
10
10
E0
ENDCHAR

STARTCHAR four
ENCODING 52
SWIDTH 500 0
DWIDTH 7 0
BBX 6 10 0 0
BITMAP
08
18
18
28
48
48
88
FC
08
08
ENDCHAR

STARTCHAR five
ENCODING 53
SWIDTH 500 0
DWIDTH 7 0
BBX 5 10 1 0
BITMAP
78
40
80
F0
08
08
08
08
10
E0
ENDCHAR

STARTCHAR six
ENCODING 54
SWIDTH 500 0
DWIDTH 7 0
BBX 6 10 1 0
BITMAP
0C
30
40
78
84
84
84
84
84
78
ENDCHAR

STARTCHAR seven
ENCODING 55
SWIDTH 500 0
DWIDTH 7 0
BBX 6 10 0 0
BITMAP
7C
84
08
08
08
10
10
10
20
20
ENDCHAR

STARTCHAR eight
ENCODING 56
SWIDTH 500 0
DWIDTH 7 0
BBX 5 10 1 0
BITMAP
70
88
88
50
20
50
88
88
88
70
ENDCHAR

STARTCHAR nine
ENCODING 57
SWIDTH 500 0
DWIDTH 7 0
BBX 6 10 0 0
BITMAP
78
84
84
84
84
7C
08
08
30
C0
ENDCHAR

STARTCHAR colon
ENCODING 58
SWIDTH 278 0
DWIDTH 4 0
BBX 2 7 1 0
BITMAP
C0
00
00
00
00
00
C0
ENDCHAR

STARTCHAR semicolon
ENCODING 59
SWIDTH 278 0
DWIDTH 4 0
BBX 2 9 1 -2
BITMAP
C0
00
00
00
00
00
C0
40
80
ENDCHAR

STARTCHAR less
ENCODING 60
SWIDTH 564 0
DWIDTH 8 0
BBX 7 7 0 0
BITMAP
06
18
60
80
60
18
06
ENDCHAR

STARTCHAR equal
ENCODING 61
SWIDTH 564 0
DWIDTH 8 0
BBX 7 4 0 2
BITMAP
FE
00
00
FE
ENDCHAR

STARTCHAR greater
ENCODING 62
SWIDTH 564 0
DWIDTH 8 0
BBX 7 7 0 0
BITMAP
C0
30
0C
02
0C
30
C0
ENDCHAR

STARTCHAR question
ENCODING 63
SWIDTH 444 0
DWIDTH 6 0
BBX 5 10 1 0
BITMAP
70
88
88
08
10
20
20
20
00
20
ENDCHAR

STARTCHAR at
ENCODING 64
SWIDTH 921 0
DWIDTH 13 0
BBX 12 12 0 -2
BITMAP
07C0
1820
2310
4490
4890
9090
9090
9120
9EC0
4000
2040
1F80
ENDCHAR

STARTCHAR A
ENCODING 65
SWIDTH 722 0
DWIDTH 10 0
BBX 10 10 0 0
BITMAP
0800
0800
1C00
1400
1600
2200
3F00
4100
4180
E3C0
ENDCHAR

STARTCHAR B
ENCODING 66
SWIDTH 667 0
DWIDTH 9 0
BBX 7 10 1 0
BITMAP
FC
46
42
46
7C
46
42
42
46
FC
ENDCHAR

STARTCHAR C
ENCODING 67
SWIDTH 667 0
DWIDTH 9 0
BBX 8 10 1 0
BITMAP
3D
63
C1
81
80
80
80
C0
61
3E
ENDCHAR

STARTCHAR D
ENCODING 68
SWIDTH 722 0
DWIDTH 10 0
BBX 9 10 0 0
BITMAP
FE00
4300
4180
4080
4080
4080
4080
4180
4300
FE00
ENDCHAR

STARTCHAR E
ENCODING 69
SWIDTH 611 0
DWIDTH 9 0
BBX 8 10 0 0
BITMAP
FE
42
40
44
7C
44
40
41
42
FE
ENDCHAR

STARTCHAR F
ENCODING 70
SWIDTH 556 0
DWIDTH 8 0
BBX 7 10 0 0
BITMAP
FE
42
40
44
7C
44
40
40
40
E0
ENDCHAR

STARTCHAR G
ENCODING 71
SWIDTH 722 0
DWIDTH 10 0
BBX 9 10 1 0
BITMAP
3D00
6300
C100
8000
8380
8100
8100
C100
6100
3E00
ENDCHAR

STARTCHAR H
ENCODING 72
SWIDTH 722 0
DWIDTH 10 0
BBX 9 10 1 0
BITMAP
E380
4100
4100
4100
7F00
4100
4100
4100
4100
E380
ENDCHAR

STARTCHAR I
ENCODING 73
SWIDTH 333 0
DWIDTH 5 0
BBX 3 10 1 0
BITMAP
E0
40
40
40
40
40
40
40
40
E0
ENDCHAR

STARTCHAR J
ENCODING 74
SWIDTH 389 0
DWIDTH 5 0
BBX 4 10 1 0
BITMAP
70
20
20
20
20
20
20
20
20
C0
ENDCHAR

STARTCHAR K
ENCODING 75
SWIDTH 722 0
DWIDTH 10 0
BBX 9 10 1 0
BITMAP
EF00
4400
4800
5000
7000
5800
4C00
4600
4300
E780
ENDCHAR

STARTCHAR L
ENCODING 76
SWIDTH 611 0
DWIDTH 9 0
BBX 7 10 1 0
BITMAP
E0
40
40
40
40
40
40
42
42
FE
ENDCHAR

STARTCHAR M
ENCODING 77
SWIDTH 889 0
DWIDTH 12 0
BBX 11 10 1 0
BITMAP
C060
60C0
60C0
7140
5140
5A40
4A40
4C40
4440
E4E0
ENDCHAR

STARTCHAR N
ENCODING 78
SWIDTH 722 0
DWIDTH 10 0
BBX 9 10 1 0
BITMAP
C380
6100
7100
5100
5900
4D00
4500
4700
4300
E100
ENDCHAR

STARTCHAR O
ENCODING 79
SWIDTH 722 0
DWIDTH 10 0
BBX 9 10 1 0
BITMAP
3E00
4100
C180
8080
8080
8080
8080
C180
4100
3E00
ENDCHAR

STARTCHAR P
ENCODING 80
SWIDTH 556 0
DWIDTH 8 0
BBX 7 10 0 0
BITMAP
FC
46
42
42
46
7C
40
40
40
E0
ENDCHAR

STARTCHAR Q
ENCODING 81
SWIDTH 722 0
DWIDTH 10 0
BBX 9 12 1 -2
BITMAP
3E00
4100
C180
8080
8080
8080
8080
C180
4100
3E00
0C00
0780
ENDCHAR

STARTCHAR R
ENCODING 82
SWIDTH 667 0
DWIDTH 9 0
BBX 9 10 0 0
BITMAP
FC00
4600
4200
4200
4600
7C00
5800
4C00
4600
E380
ENDCHAR

STARTCHAR S
ENCODING 83
SWIDTH 556 0
DWIDTH 8 0
BBX 5 10 1 0
BITMAP
78
88
88
C0
60
30
18
88
88
F0
ENDCHAR

STARTCHAR T
ENCODING 84
SWIDTH 611 0
DWIDTH 9 0
BBX 7 10 1 0
BITMAP
FE
92
92
10
10
10
10
10
10
38
ENDCHAR

STARTCHAR U
ENCODING 85
SWIDTH 722 0
DWIDTH 10 0
BBX 9 10 1 0
BITMAP
E380
4100
4100
4100
4100
4100
4100
4100
6300
3E00
ENDCHAR

STARTCHAR V
ENCODING 86
SWIDTH 722 0
DWIDTH 10 0
BBX 10 10 0 0
BITMAP
F1C0
6080
2080
3100
1100
1A00
0A00
0E00
0400
0400
ENDCHAR

STARTCHAR W
ENCODING 87
SWIDTH 944 0
DWIDTH 13 0
BBX 13 10 0 0
BITMAP
EF38
4610
6210
2220
3320
1120
1BA0
0AC0
0CC0
0440
ENDCHAR

STARTCHAR X
ENCODING 88
SWIDTH 722 0
DWIDTH 10 0
BBX 10 10 0 0
BITMAP
F1C0
6080
3100
1A00
0C00
0C00
1600
2300
4180
E3C0
ENDCHAR

STARTCHAR Y
ENCODING 89
SWIDTH 722 0
DWIDTH 10 0
BBX 9 10 1 0
BITMAP
E180
6100
3200
1C00
1800
0800
0800
0800
0800
1C00
ENDCHAR

STARTCHAR Z
ENCODING 90
SWIDTH 611 0
DWIDTH 9 0
BBX 8 10 0 0
BITMAP
7F
82
86
0C
08
10
30
61
41
FF
ENDCHAR

STARTCHAR bracketleft
ENCODING 91
SWIDTH 333 0
DWIDTH 5 0
BBX 3 12 1 -2
BITMAP
E0
80
80
80
80
80
80
80
80
80
80
E0
ENDCHAR

STARTCHAR backslash
ENCODING 92
SWIDTH 278 0
DWIDTH 4 0
BBX 6 10 0 0
BITMAP
80
40
40
20
20
10
10
08
08
04
ENDCHAR

STARTCHAR bracketright
ENCODING 93
SWIDTH 333 0
DWIDTH 5 0
BBX 3 12 0 -2
BITMAP
E0
20
20
20
20
20
20
20
20
20
20
E0
ENDCHAR

STARTCHAR asciicircum
ENCODING 94
SWIDTH 469 0
DWIDTH 7 0
BBX 6 6 0 4
BITMAP
30
30
48
48
48
84
ENDCHAR

STARTCHAR underscore
ENCODING 95
SWIDTH 500 0
DWIDTH 7 0
BBX 7 1 0 -2
BITMAP
FE
ENDCHAR

STARTCHAR quoteleft
ENCODING 96
SWIDTH 333 0
DWIDTH 5 0
BBX 2 3 2 7
BITMAP
40
80
C0
ENDCHAR

STARTCHAR a
ENCODING 97
SWIDTH 444 0
DWIDTH 6 0
BBX 5 7 1 0
BITMAP
70
90
10
70
90
90
F8
ENDCHAR

STARTCHAR b
ENCODING 98
SWIDTH 500 0
DWIDTH 7 0
BBX 6 10 0 0
BITMAP
C0
40
40
58
6C
44
44
44
4C
38
ENDCHAR

STARTCHAR c
ENCODING 99
SWIDTH 444 0
DWIDTH 6 0
BBX 5 7 1 0
BITMAP
78
C8
80
80
80
C8
70
ENDCHAR

STARTCHAR d
ENCODING 100
SWIDTH 500 0
DWIDTH 7 0
BBX 6 10 1 0
BITMAP
18
08
08
68
D8
88
88
88
C8
7C
ENDCHAR

STARTCHAR e
ENCODING 101
SWIDTH 444 0
DWIDTH 6 0
BBX 5 7 1 0
BITMAP
70
88
F8
80
80
C8
70
ENDCHAR

STARTCHAR f
ENCODING 102
SWIDTH 333 0
DWIDTH 5 0
BBX 5 10 0 0
BITMAP
38
40
40
F0
40
40
40
40
40
E0
ENDCHAR

STARTCHAR g
ENCODING 103
SWIDTH 500 0
DWIDTH 7 0
BBX 7 10 0 -3
BITMAP
38
4E
44
64
38
40
7C
86
C2
7C
ENDCHAR

STARTCHAR h
ENCODING 104
SWIDTH 500 0
DWIDTH 7 0
BBX 7 10 0 0
BITMAP
C0
40
40
58
6C
44
44
44
44
EE
ENDCHAR

STARTCHAR i
ENCODING 105
SWIDTH 278 0
DWIDTH 4 0
BBX 3 10 0 0
BITMAP
40
00
00
C0
40
40
40
40
40
E0
ENDCHAR

STARTCHAR j
ENCODING 106
SWIDTH 278 0
DWIDTH 4 0
BBX 3 13 0 -3
BITMAP
20
00
00
60
20
20
20
20
20
20
20
20
C0
ENDCHAR

STARTCHAR k
ENCODING 107
SWIDTH 500 0
DWIDTH 7 0
BBX 6 10 1 0
BITMAP
C0
40
40
4C
48
50
60
50
48
EC
ENDCHAR

STARTCHAR l
ENCODING 108
SWIDTH 278 0
DWIDTH 4 0
BBX 3 10 0 0
BITMAP
C0
40
40
40
40
40
40
40
40
E0
ENDCHAR

STARTCHAR m
ENCODING 109
SWIDTH 778 0
DWIDTH 11 0
BBX 11 7 0 0
BITMAP
D980
6640
4440
4440
4440
4440
EEE0
ENDCHAR

STARTCHAR n
ENCODING 110
SWIDTH 500 0
DWIDTH 7 0
BBX 7 7 0 0
BITMAP
D8
64
44
44
44
44
EE
ENDCHAR

STARTCHAR o
ENCODING 111
SWIDTH 500 0
DWIDTH 7 0
BBX 6 7 1 0
BITMAP
78
8C
84
84
84
C4
78
ENDCHAR

STARTCHAR p
ENCODING 112
SWIDTH 500 0
DWIDTH 7 0
BBX 6 10 0 -3
BITMAP
F8
4C
44
44
44
44
78
40
40
E0
ENDCHAR

STARTCHAR q
ENCODING 113
SWIDTH 500 0
DWIDTH 7 0
BBX 6 10 1 -3
BITMAP
78
C8
88
88
88
88
78
08
08
1C
ENDCHAR

STARTCHAR r
ENCODING 114
SWIDTH 333 0
DWIDTH 5 0
BBX 4 7 0 0
BITMAP
D0
70
40
40
40
40
E0
ENDCHAR

STARTCHAR s
ENCODING 115
SWIDTH 389 0
DWIDTH 5 0
BBX 4 7 1 0
BITMAP
70
90
80
60
10
90
E0
ENDCHAR

STARTCHAR t
ENCODING 116
SWIDTH 278 0
DWIDTH 4 0
BBX 4 9 0 0
BITMAP
40
40
E0
40
40
40
40
50
60
ENDCHAR

STARTCHAR u
ENCODING 117
SWIDTH 500 0
DWIDTH 7 0
BBX 7 7 0 0
BITMAP
CC
44
44
44
44
4C
76
ENDCHAR

STARTCHAR v
ENCODING 118
SWIDTH 500 0
DWIDTH 7 0
BBX 6 7 0 0
BITMAP
EC
44
48
28
28
10
10
ENDCHAR

STARTCHAR w
ENCODING 119
SWIDTH 722 0
DWIDTH 10 0
BBX 9 7 0 0
BITMAP
FD80
4880
4900
2D00
2D00
1200
1200
ENDCHAR

STARTCHAR x
ENCODING 120
SWIDTH 500 0
DWIDTH 7 0
BBX 6 7 0 0
BITMAP
CC
48
30
30
30
48
CC
ENDCHAR

STARTCHAR y
ENCODING 121
SWIDTH 500 0
DWIDTH 7 0
BBX 7 10 0 -3
BITMAP
EE
44
44
28
28
10
10
10
A0
C0
ENDCHAR

STARTCHAR z
ENCODING 122
SWIDTH 444 0
DWIDTH 6 0
BBX 5 7 0 0
BITMAP
F8
88
10
20
40
88
F8
ENDCHAR

STARTCHAR braceleft
ENCODING 123
SWIDTH 480 0
DWIDTH 7 0
BBX 3 12 2 -2
BITMAP
60
40
40
40
40
80
40
40
40
40
40
60
ENDCHAR

STARTCHAR bar
ENCODING 124
SWIDTH 200 0
DWIDTH 3 0
BBX 1 10 1 0
BITMAP
80
80
80
80
80
80
80
80
80
80
ENDCHAR

STARTCHAR braceright
ENCODING 125
SWIDTH 480 0
DWIDTH 7 0
BBX 3 12 2 -2
BITMAP
C0
40
40
40
40
20
40
40
40
40
40
C0
ENDCHAR

STARTCHAR asciitilde
ENCODING 126
SWIDTH 541 0
DWIDTH 8 0
BBX 7 2 0 3
BITMAP
72
9C
ENDCHAR

STARTCHAR exclamdown
ENCODING 161
SWIDTH 333 0
DWIDTH 5 0
BBX 1 10 2 -3
BITMAP
80
00
00
80
80
80
80
80
80
80
ENDCHAR

STARTCHAR cent
ENCODING 162
SWIDTH 500 0
DWIDTH 7 0
BBX 5 11 1 -2
BITMAP
08
08
78
98
90
A0
A0
A8
70
40
40
ENDCHAR

STARTCHAR sterling
ENCODING 163
SWIDTH 500 0
DWIDTH 7 0
BBX 6 10 1 0
BITMAP
38
40
40
40
F0
40
40
40
C4
F8
ENDCHAR

STARTCHAR currency
ENCODING 164
SWIDTH 500 0
DWIDTH 7 0
BBX 7 7 0 1
BITMAP
BA
44
82
82
82
44
BA
ENDCHAR

STARTCHAR yen
ENCODING 165
SWIDTH 500 0
DWIDTH 7 0
BBX 7 10 0 0
BITMAP
E6
44
68
38
10
7C
10
7C
10
38
ENDCHAR

STARTCHAR brokenbar
ENCODING 166
SWIDTH 200 0
DWIDTH 3 0
BBX 1 10 1 0
BITMAP
80
80
80
80
00
00
80
80
80
80
ENDCHAR

STARTCHAR section
ENCODING 167
SWIDTH 500 0
DWIDTH 7 0
BBX 5 12 1 -2
BITMAP
70
50
40
20
F0
98
C8
78
20
10
50
70
ENDCHAR

STARTCHAR dieresis
ENCODING 168
SWIDTH 333 0
DWIDTH 5 0
BBX 4 1 0 7
BITMAP
90
ENDCHAR

STARTCHAR copyright
ENCODING 169
SWIDTH 760 0
DWIDTH 11 0
BBX 10 10 0 0
BITMAP
1E00
6180
4E80
9240
A040
A040
9240
4C80
6180
1E00
ENDCHAR

STARTCHAR ordfeminine
ENCODING 170
SWIDTH 276 0
DWIDTH 4 0
BBX 4 6 0 4
BITMAP
E0
60
A0
D0
00
F0
ENDCHAR

STARTCHAR guillemotleft
ENCODING 171
SWIDTH 500 0
DWIDTH 7 0
BBX 6 5 0 0
BITMAP
24
48
90
48
24
ENDCHAR

STARTCHAR logicalnot
ENCODING 172
SWIDTH 564 0
DWIDTH 8 0
BBX 7 4 0 2
BITMAP
FE
02
02
02
ENDCHAR

STARTCHAR hyphen
ENCODING 173
SWIDTH 333 0
DWIDTH 5 0
BBX 3 1 1 3
BITMAP
E0
ENDCHAR

STARTCHAR registered
ENCODING 174
SWIDTH 760 0
DWIDTH 11 0
BBX 10 10 0 0
BITMAP
1E00
6180
5E80
9240
9E40
9840
9440
5280
6180
1E00
ENDCHAR

STARTCHAR macron
ENCODING 175
SWIDTH 333 0
DWIDTH 5 0
BBX 4 1 0 8
BITMAP
F0
ENDCHAR

STARTCHAR degree
ENCODING 176
SWIDTH 400 0
DWIDTH 7 0
BBX 4 4 1 6
BITMAP
60
90
90
60
ENDCHAR

STARTCHAR plusminus
ENCODING 177
SWIDTH 564 0
DWIDTH 8 0
BBX 7 9 0 0
BITMAP
10
10
10
FE
10
10
10
00
FE
ENDCHAR

STARTCHAR twosuperior
ENCODING 178
SWIDTH 300 0
DWIDTH 4 0
BBX 3 6 -4 4
BITMAP
C0
20
20
40
80
E0
ENDCHAR

STARTCHAR threesuperior
ENCODING 179
SWIDTH 300 0
DWIDTH 4 0
BBX 3 6 -4 4
BITMAP
C0
20
40
20
20
C0
ENDCHAR

STARTCHAR acute
ENCODING 180
SWIDTH 333 0
DWIDTH 5 0
BBX 3 2 1 8
BITMAP
60
80
ENDCHAR

STARTCHAR mu
ENCODING 181
SWIDTH 500 0
DWIDTH 7 0
BBX 7 9 0 -2
BITMAP
CC
44
44
44
44
4C
76
40
40
ENDCHAR

STARTCHAR paragraph
ENCODING 182
SWIDTH 453 0
DWIDTH 6 0
BBX 6 13 0 -3
BITMAP
3C
E8
E8
E8
E8
68
28
28
28
28
28
28
28
ENDCHAR

STARTCHAR periodcentered
ENCODING 183
SWIDTH 250 0
DWIDTH 7 0
BBX 1 1 3 4
BITMAP
80
ENDCHAR

STARTCHAR cedilla
ENCODING 184
SWIDTH 333 0
DWIDTH 5 0
BBX 3 4 1 -3
BITMAP
40
60
20
E0
ENDCHAR

STARTCHAR onesuperior
ENCODING 185
SWIDTH 300 0
DWIDTH 4 0
BBX 3 6 -4 4
BITMAP
C0
40
40
40
40
E0
ENDCHAR

STARTCHAR ordmasculine
ENCODING 186
SWIDTH 310 0
DWIDTH 4 0
BBX 4 6 0 4
BITMAP
60
90
90
60
00
F0
ENDCHAR

STARTCHAR guillemotright
ENCODING 187
SWIDTH 500 0
DWIDTH 7 0
BBX 6 5 1 0
BITMAP
90
48
24
48
90
ENDCHAR

STARTCHAR onequarter
ENCODING 188
SWIDTH 750 0
DWIDTH 11 0
BBX 10 10 4 0
BITMAP
C080
4100
4100
4200
4480
E480
0980
1280
13C0
2080
ENDCHAR

STARTCHAR onehalf
ENCODING 189
SWIDTH 750 0
DWIDTH 11 0
BBX 10 10 4 0
BITMAP
C080
4100
4100
4200
45C0
E440
0840
1080
1100
21C0
ENDCHAR

STARTCHAR threequarters
ENCODING 190
SWIDTH 750 0
DWIDTH 11 0
BBX 10 10 4 0
BITMAP
E080
2100
4100
2200
2480
C480
0980
1280
13C0
2080
ENDCHAR

STARTCHAR questiondown
ENCODING 191
SWIDTH 444 0
DWIDTH 6 0
BBX 5 10 1 -3
BITMAP
20
00
20
20
20
40
80
88
88
70
ENDCHAR

STARTCHAR Agrave
ENCODING 192
SWIDTH 722 0
DWIDTH 10 0
BBX 10 13 0 0
BITMAP
1800
0800
0400
0800
0800
0C00
1400
1600
2200
3F00
4100
4180
E3C0
ENDCHAR

STARTCHAR Aacute
ENCODING 193
SWIDTH 722 0
DWIDTH 10 0
BBX 10 13 0 0
BITMAP
0C00
0800
1000
0800
0800
0C00
1400
1600
2200
3F00
4100
4180
E3C0
ENDCHAR

STARTCHAR Acircumflex
ENCODING 194
SWIDTH 722 0
DWIDTH 10 0
BBX 10 13 0 0
BITMAP
0C00
1200
0000
0800
0800
0C00
1400
1600
2200
3F00
4100
4180
E3C0
ENDCHAR

STARTCHAR Atilde
ENCODING 195
SWIDTH 722 0
DWIDTH 10 0
BBX 10 13 0 0
BITMAP
0A00
1400
0000
0800
0800
0C00
1400
1600
2200
3F00
4100
4180
E3C0
ENDCHAR

STARTCHAR Adieresis
ENCODING 196
SWIDTH 722 0
DWIDTH 10 0
BBX 10 12 0 0
BITMAP
1200
0000
0800
0800
0C00
1400
1600
2200
3F00
4100
4180
E3C0
ENDCHAR

STARTCHAR Aring
ENCODING 197
SWIDTH 722 0
DWIDTH 10 0
BBX 10 14 0 0
BITMAP
0800
1400
0800
0000
0800
0800
0C00
1400
1600
2200
3F00
4100
4180
E3C0
ENDCHAR

STARTCHAR AE
ENCODING 198
SWIDTH 889 0
DWIDTH 12 0
BBX 13 10 0 0
BITMAP
0FF0
0610
0A00
0A20
13E0
1E20
2200
2208
4210
E7F0
ENDCHAR

STARTCHAR Ccedilla
ENCODING 199
SWIDTH 667 0
DWIDTH 9 0
BBX 8 14 1 -4
BITMAP
3D
63
C1
81
80
80
80
C0
61
3E
10
18
08
38
ENDCHAR

STARTCHAR Egrave
ENCODING 200
SWIDTH 611 0
DWIDTH 9 0
BBX 8 13 0 0
BITMAP
30
10
00
FE
42
40
44
7C
44
40
41
42
FE
ENDCHAR

STARTCHAR Eacute
ENCODING 201
SWIDTH 611 0
DWIDTH 9 0
BBX 8 13 0 0
BITMAP
18
10
00
FE
42
40
44
7C
44
40
41
42
FE
ENDCHAR

STARTCHAR Ecircumflex
ENCODING 202
SWIDTH 611 0
DWIDTH 9 0
BBX 8 13 0 0
BITMAP
18
24
00
FE
42
40
44
7C
44
40
41
42
FE
ENDCHAR

STARTCHAR Edieresis
ENCODING 203
SWIDTH 611 0
DWIDTH 9 0
BBX 8 12 0 0
BITMAP
24
00
FE
42
40
44
7C
44
40
41
42
FE
ENDCHAR

STARTCHAR Igrave
ENCODING 204
SWIDTH 333 0
DWIDTH 5 0
BBX 3 13 2 0
BITMAP
C0
40
00
E0
40
40
40
40
40
40
40
40
E0
ENDCHAR

STARTCHAR Iacute
ENCODING 205
SWIDTH 333 0
DWIDTH 5 0
BBX 3 13 1 0
BITMAP
60
40
00
E0
40
40
40
40
40
40
40
40
E0
ENDCHAR

STARTCHAR Icircumflex
ENCODING 206
SWIDTH 333 0
DWIDTH 5 0
BBX 3 13 2 0
BITMAP
40
A0
00
E0
40
40
40
40
40
40
40
40
E0
ENDCHAR

STARTCHAR Idieresis
ENCODING 207
SWIDTH 333 0
DWIDTH 5 0
BBX 3 12 2 0
BITMAP
A0
00
E0
40
40
40
40
40
40
40
40
E0
ENDCHAR

STARTCHAR Eth
ENCODING 208
SWIDTH 722 0
DWIDTH 10 0
BBX 9 10 0 0
BITMAP
FC00
4300
4100
4080
F080
4080
4080
4100
4300
FC00
ENDCHAR

STARTCHAR Ntilde
ENCODING 209
SWIDTH 722 0
DWIDTH 10 0
BBX 9 13 1 0
BITMAP
1A00
2C00
0000
C380
6100
6100
5100
4900
4900
4500
4300
4300
E100
ENDCHAR

STARTCHAR Ograve
ENCODING 210
SWIDTH 722 0
DWIDTH 10 0
BBX 9 13 1 0
BITMAP
1800
0800
0000
3E00
6300
4100
8080
8080
8080
8080
4100
6300
3E00
ENDCHAR

STARTCHAR Oacute
ENCODING 211
SWIDTH 722 0
DWIDTH 10 0
BBX 9 13 1 0
BITMAP
0C00
0800
0000
3E00
6300
4100
8080
8080
8080
8080
4100
6300
3E00
ENDCHAR

STARTCHAR Ocircumflex
ENCODING 212
SWIDTH 722 0
DWIDTH 10 0
BBX 9 13 1 0
BITMAP
0800
1400
0000
3E00
6300
4100
8080
8080
8080
8080
4100
6300
3E00
ENDCHAR

STARTCHAR Otilde
ENCODING 213
SWIDTH 722 0
DWIDTH 10 0
BBX 9 13 1 0
BITMAP
1A00
2C00
0000
3E00
6300
4100
8080
8080
8080
8080
4100
6300
3E00
ENDCHAR

STARTCHAR Odieresis
ENCODING 214
SWIDTH 722 0
DWIDTH 10 0
BBX 9 12 1 0
BITMAP
1400
0000
3E00
6300
4100
8080
8080
8080
8080
4100
6300
3E00
ENDCHAR

STARTCHAR multiply
ENCODING 215
SWIDTH 564 0
DWIDTH 8 0
BBX 6 5 1 2
BITMAP
84
48
30
48
84
ENDCHAR

STARTCHAR Oslash
ENCODING 216
SWIDTH 722 0
DWIDTH 10 0
BBX 9 11 1 0
BITMAP
0100
3E00
6300
4500
8480
8880
8880
9080
5100
6300
7E00
ENDCHAR

STARTCHAR Ugrave
ENCODING 217
SWIDTH 722 0
DWIDTH 10 0
BBX 9 13 1 0
BITMAP
3000
1000
0800
E380
4100
4100
4100
4100
4100
4100
4100
6300
3E00
ENDCHAR

STARTCHAR Uacute
ENCODING 218
SWIDTH 722 0
DWIDTH 10 0
BBX 9 13 1 0
BITMAP
0600
0400
0800
E380
4100
4100
4100
4100
4100
4100
4100
6300
3E00
ENDCHAR

STARTCHAR Ucircumflex
ENCODING 219
SWIDTH 722 0
DWIDTH 10 0
BBX 9 13 1 0
BITMAP
0800
1400
0000
E380
4100
4100
4100
4100
4100
4100
4100
6300
3E00
ENDCHAR

STARTCHAR Udieresis
ENCODING 220
SWIDTH 722 0
DWIDTH 10 0
BBX 9 12 1 0
BITMAP
1400
0000
E380
4100
4100
4100
4100
4100
4100
4100
6300
3E00
ENDCHAR

STARTCHAR Yacute
ENCODING 221
SWIDTH 722 0
DWIDTH 10 0
BBX 9 13 1 0
BITMAP
0600
0800
0000
E380
6100
2200
1400
1800
0800
0800
0800
0800
1C00
ENDCHAR

STARTCHAR Thorn
ENCODING 222
SWIDTH 556 0
DWIDTH 8 0
BBX 7 10 0 0
BITMAP
E0
40
7C
46
42
42
46
7C
40
E0
ENDCHAR

STARTCHAR germandbls
ENCODING 223
SWIDTH 500 0
DWIDTH 7 0
BBX 6 10 0 0
BITMAP
30
48
48
48
50
4C
44
44
44
D8
ENDCHAR

STARTCHAR agrave
ENCODING 224
SWIDTH 444 0
DWIDTH 6 0
BBX 5 10 1 0
BITMAP
60
20
00
70
90
10
70
90
90
F8
ENDCHAR

STARTCHAR aacute
ENCODING 225
SWIDTH 444 0
DWIDTH 6 0
BBX 5 10 1 0
BITMAP
30
20
00
70
90
10
70
90
90
F8
ENDCHAR

STARTCHAR acircumflex
ENCODING 226
SWIDTH 444 0
DWIDTH 6 0
BBX 5 10 1 0
BITMAP
60
90
00
70
90
10
70
90
90
F8
ENDCHAR

STARTCHAR atilde
ENCODING 227
SWIDTH 444 0
DWIDTH 6 0
BBX 5 10 1 0
BITMAP
50
A0
00
70
90
10
70
90
90
F8
ENDCHAR

STARTCHAR adieresis
ENCODING 228
SWIDTH 444 0
DWIDTH 6 0
BBX 5 9 1 0
BITMAP
90
00
70
90
10
70
90
90
F8
ENDCHAR

STARTCHAR aring
ENCODING 229
SWIDTH 444 0
DWIDTH 6 0
BBX 5 11 1 0
BITMAP
20
50
20
00
70
90
10
70
90
90
F8
ENDCHAR

STARTCHAR ae
ENCODING 230
SWIDTH 667 0
DWIDTH 9 0
BBX 7 7 1 0
BITMAP
6C
92
1E
70
90
92
EC
ENDCHAR

STARTCHAR ccedilla
ENCODING 231
SWIDTH 444 0
DWIDTH 6 0
BBX 5 11 1 -4
BITMAP
78
C8
80
80
80
C8
70
20
20
10
70
ENDCHAR

STARTCHAR egrave
ENCODING 232
SWIDTH 444 0
DWIDTH 6 0
BBX 5 10 1 0
BITMAP
60
20
00
70
88
F8
80
80
C8
70
ENDCHAR

STARTCHAR eacute
ENCODING 233
SWIDTH 444 0
DWIDTH 6 0
BBX 5 10 1 0
BITMAP
30
20
00
70
88
F8
80
80
C8
70
ENDCHAR

STARTCHAR ecircumflex
ENCODING 234
SWIDTH 444 0
DWIDTH 6 0
BBX 5 10 1 0
BITMAP
20
50
00
70
88
F8
80
80
C8
70
ENDCHAR

STARTCHAR edieresis
ENCODING 235
SWIDTH 444 0
DWIDTH 6 0
BBX 5 9 1 0
BITMAP
50
00
70
88
F8
80
80
C8
70
ENDCHAR

STARTCHAR igrave
ENCODING 236
SWIDTH 278 0
DWIDTH 4 0
BBX 3 10 1 0
BITMAP
C0
40
00
C0
40
40
40
40
40
E0
ENDCHAR

STARTCHAR iacute
ENCODING 237
SWIDTH 278 0
DWIDTH 4 0
BBX 3 10 0 0
BITMAP
60
40
00
C0
40
40
40
40
40
E0
ENDCHAR

STARTCHAR icircumflex
ENCODING 238
SWIDTH 278 0
DWIDTH 4 0
BBX 3 10 1 0
BITMAP
40
A0
00
C0
40
40
40
40
40
E0
ENDCHAR

STARTCHAR idieresis
ENCODING 239
SWIDTH 278 0
DWIDTH 4 0
BBX 3 9 1 0
BITMAP
A0
00
C0
40
40
40
40
40
E0
ENDCHAR

STARTCHAR eth
ENCODING 240
SWIDTH 500 0
DWIDTH 7 0
BBX 6 10 0 0
BITMAP
D8
30
D8
3C
4C
C4
84
84
CC
78
ENDCHAR

STARTCHAR ntilde
ENCODING 241
SWIDTH 500 0
DWIDTH 7 0
BBX 7 10 0 0
BITMAP
34
58
00
D8
64
44
44
44
44
EE
ENDCHAR

STARTCHAR ograve
ENCODING 242
SWIDTH 500 0
DWIDTH 7 0
BBX 6 10 1 0
BITMAP
30
10
00
78
8C
84
84
84
C4
78
ENDCHAR

STARTCHAR oacute
ENCODING 243
SWIDTH 500 0
DWIDTH 7 0
BBX 6 10 1 0
BITMAP
30
20
00
78
8C
84
84
84
C4
78
ENDCHAR

STARTCHAR ocircumflex
ENCODING 244
SWIDTH 500 0
DWIDTH 7 0
BBX 6 10 1 0
BITMAP
30
48
00
78
8C
84
84
84
C4
78
ENDCHAR

STARTCHAR otilde
ENCODING 245
SWIDTH 500 0
DWIDTH 7 0
BBX 6 10 1 0
BITMAP
28
50
00
78
8C
84
84
84
C4
78
ENDCHAR

STARTCHAR odieresis
ENCODING 246
SWIDTH 500 0
DWIDTH 7 0
BBX 6 9 1 0
BITMAP
48
00
78
8C
84
84
84
C4
78
ENDCHAR

STARTCHAR divide
ENCODING 247
SWIDTH 564 0
DWIDTH 8 0
BBX 7 5 0 2
BITMAP
10
00
FE
00
10
ENDCHAR

STARTCHAR oslash
ENCODING 248
SWIDTH 500 0
DWIDTH 7 0
BBX 6 8 1 0
BITMAP
04
78
8C
94
94
A4
C4
F8
ENDCHAR

STARTCHAR ugrave
ENCODING 249
SWIDTH 500 0
DWIDTH 7 0
BBX 7 10 0 0
BITMAP
30
10
00
CC
44
44
44
44
4C
36
ENDCHAR

STARTCHAR uacute
ENCODING 250
SWIDTH 500 0
DWIDTH 7 0
BBX 7 10 0 0
BITMAP
18
10
00
CC
44
44
44
44
44
3A
ENDCHAR

STARTCHAR ucircumflex
ENCODING 251
SWIDTH 500 0
DWIDTH 7 0
BBX 7 10 0 0
BITMAP
10
28
00
CC
44
44
44
44
44
3A
ENDCHAR

STARTCHAR udieresis
ENCODING 252
SWIDTH 500 0
DWIDTH 7 0
BBX 7 9 0 0
BITMAP
28
00
CC
44
44
44
44
44
3A
ENDCHAR

STARTCHAR yacute
ENCODING 253
SWIDTH 500 0
DWIDTH 7 0
BBX 7 13 0 -3
BITMAP
18
10
00
E6
44
44
28
28
10
10
10
20
C0
ENDCHAR

STARTCHAR thorn
ENCODING 254
SWIDTH 500 0
DWIDTH 7 0
BBX 6 13 0 -3
BITMAP
C0
40
40
78
4C
44
44
44
48
78
40
40
E0
ENDCHAR

STARTCHAR ydieresis
ENCODING 255
SWIDTH 500 0
DWIDTH 7 0
BBX 7 12 0 -3
BITMAP
28
00
E6
44
44
28
28
10
10
10
20
C0
ENDCHAR
ENDFONT
